<svg width="49" height="49" viewBox="0 0 49 49" fill="none" xmlns="http://www.w3.org/2000/svg">
<g clip-path="url(#clip0_193_1208)">
<path d="M45.2666 24.5008C45.2666 24.1878 45.1761 23.8813 45.0059 23.6185C44.8358 23.3557 44.5933 23.1476 44.3077 23.0194L17.9204 11.1225L17.9166 11.1187C17.611 10.9829 17.2709 10.9447 16.9428 11.0094C16.6147 11.0741 16.3146 11.2385 16.0834 11.4801C15.8522 11.7218 15.7013 12.0289 15.6512 12.3595C15.6011 12.6902 15.6543 13.0282 15.8035 13.3275L15.8169 13.3533L19.5814 22.7289C19.6706 22.896 19.8021 23.0367 19.9627 23.137C20.1234 23.2373 20.3075 23.2938 20.4968 23.3007L40.8667 24.0199C40.9295 24.0199 40.9918 24.0323 41.0498 24.0564C41.1079 24.0804 41.1606 24.1157 41.205 24.1601C41.2495 24.2045 41.2847 24.2573 41.3088 24.3153C41.3328 24.3734 41.3452 24.4356 41.3452 24.4985C41.3452 24.5613 41.3328 24.6235 41.3088 24.6816C41.2847 24.7396 41.2495 24.7924 41.205 24.8368C41.1606 24.8813 41.1079 24.9165 41.0498 24.9405C40.9917 24.9646 40.9295 24.977 40.8667 24.977L20.5011 25.6909C20.3118 25.6978 20.1277 25.7543 19.967 25.8546C19.8064 25.955 19.6749 26.0957 19.5857 26.2627L15.8183 35.6431C15.8116 35.6555 15.8059 35.667 15.8001 35.6795C15.5097 36.2762 15.5843 36.9767 16.0317 37.4662L16.0796 37.5141C16.3147 37.7519 16.616 37.9135 16.9442 37.9779C17.2724 38.0422 17.6124 38.0063 17.92 37.8749L44.301 25.9823C44.5879 25.8551 44.8318 25.6475 45.0031 25.3845C45.1745 25.1216 45.266 24.8147 45.2666 24.5008Z" fill="#FF6464"/>
</g>
<defs>
<clipPath id="clip0_193_1208">
<rect width="34" height="34" fill="white" transform="translate(24.5) scale(1.01907) rotate(45)"/>
</clipPath>
</defs>
</svg>
