<svg width="26" height="26" viewBox="0 0 26 26" fill="none" xmlns="http://www.w3.org/2000/svg">
<path d="M20.806 14.1705C20.9142 12.6794 20.7002 11.1824 20.1785 9.78138C19.6568 8.38034 18.8396 7.10801 17.7825 6.05087C16.7253 4.99372 15.453 4.17653 14.052 3.65481C12.6509 3.1331 11.154 2.91909 9.66286 3.02734C7.02049 3.3291 4.57962 4.58652 2.79988 6.5628C1.02013 8.53908 0.0243361 11.0979 0 13.7573L0 19.5904C0 22.5209 1.74415 23.8333 3.4721 23.8333H10.0691C12.7297 23.8104 15.29 22.8153 17.2677 21.0355C19.2454 19.2556 20.5038 16.8139 20.806 14.1705ZM16.1453 7.68921C16.9669 8.51268 17.6021 9.50304 18.0079 10.5933C18.4136 11.6835 18.5804 12.8482 18.497 14.0084C18.25 16.0728 17.2569 17.9757 15.7047 19.3589C14.1525 20.7421 12.1482 21.5102 10.0691 21.5186H3.4721C2.39807 21.5186 2.31473 20.043 2.31473 19.5904V13.7573C2.32438 11.6791 3.09324 9.67607 4.4766 8.12517C5.85997 6.57427 7.76246 5.58242 9.82605 5.33629C10.0182 5.3224 10.2103 5.31545 10.4024 5.31545C11.4687 5.31446 12.5247 5.52359 13.51 5.93089C14.4954 6.33819 15.3909 6.93568 16.1453 7.68921Z" fill="#FF4040"/>
<path d="M21.2332 0.499974C21.2333 0.223842 21.4571 0 21.7332 0H23.1667C23.4428 0 23.6667 0.223858 23.6667 0.5V2.33333H25.5C25.7761 2.33333 26 2.55719 26 2.83333V4.16667C26 4.44281 25.7761 4.66667 25.5 4.66667H23.6667V6.5C23.6667 6.77614 23.4428 7 23.1667 7H21.7332C21.4571 7 21.2333 6.77616 21.2332 6.50003L21.2331 4.66667H19.5C19.2239 4.66667 19 4.44281 19 4.16667V2.83333C19 2.55719 19.2239 2.33333 19.5 2.33333H21.2331L21.2332 0.499974Z" fill="#FF4040"/>
</svg>
