<svg width="27" height="27" viewBox="0 0 27 27" fill="none" xmlns="http://www.w3.org/2000/svg">
<path d="M18.4856 7.8376L17.0818 5.61959C16.786 5.27471 16.3804 5.05955 15.9259 5.05955H11.0743C10.6197 5.05955 10.2142 5.27471 9.91837 5.61959L8.51459 7.8376C8.21875 8.18301 7.83748 8.43455 7.38291 8.43455H4.21884C3.77129 8.43455 3.34207 8.61234 3.0256 8.92881C2.70913 9.24527 2.53134 9.6745 2.53134 10.122V20.247C2.53134 20.6946 2.70913 21.1238 3.0256 21.4403C3.34207 21.7568 3.77129 21.9345 4.21884 21.9345H22.7813C23.2289 21.9345 23.6581 21.7568 23.9746 21.4403C24.2911 21.1238 24.4688 20.6946 24.4688 20.247V10.122C24.4688 9.6745 24.2911 9.24527 23.9746 8.92881C23.6581 8.61234 23.2289 8.43455 22.7813 8.43455H19.67C19.2139 8.43455 18.7814 8.18301 18.4856 7.8376Z" stroke="white" stroke-width="2" stroke-linecap="round" stroke-linejoin="round"/>
<path d="M13.5 18.5626C15.83 18.5626 17.7188 16.6738 17.7188 14.3439C17.7188 12.0139 15.83 10.1251 13.5 10.1251C11.1701 10.1251 9.28128 12.0139 9.28128 14.3439C9.28128 16.6738 11.1701 18.5626 13.5 18.5626Z" stroke="white" stroke-width="2" stroke-miterlimit="10"/>
<path d="M6.53906 8.32908V7.16892H5.27344V8.32908" stroke="white" stroke-width="2" stroke-linecap="round" stroke-linejoin="round"/>
</svg>
