<svg width="25" height="25" viewBox="0 0 25 25" fill="none" xmlns="http://www.w3.org/2000/svg">
<path d="M25 16.6669V21.8751C25 22.7039 24.6708 23.4987 24.0847 24.0847C23.4987 24.6708 22.7038 25 21.875 25H16.6667C15.2053 24.9985 13.77 24.6127 12.5048 23.8814C11.2396 23.1501 10.189 22.099 9.45833 20.8334C10.2436 20.8278 11.0262 20.7413 11.7937 20.5751C12.3783 21.306 13.1198 21.8959 13.9633 22.3013C14.8069 22.7066 15.7308 22.917 16.6667 22.9167H21.875C22.1513 22.9167 22.4162 22.807 22.6116 22.6116C22.8069 22.4163 22.9167 22.1513 22.9167 21.8751V16.6669C22.9164 15.7307 22.7054 14.8066 22.2993 13.963C21.8932 13.1195 21.3025 12.3782 20.5708 11.7941C20.7384 11.0267 20.8263 10.2441 20.8333 9.45874C22.0989 10.1894 23.1501 11.24 23.8814 12.5052C24.6127 13.7703 24.9985 15.2056 25 16.6669ZM18.726 10.0535C18.8235 8.7115 18.6309 7.36425 18.1613 6.1033C17.6917 4.84235 16.9562 3.69724 16.0048 2.7458C15.0533 1.79436 13.9082 1.05888 12.6472 0.589337C11.3862 0.119792 10.0389 -0.0728151 8.69687 0.0246049C6.31866 0.296194 4.1218 1.42788 2.51997 3.20655C0.918153 4.98522 0.0219033 7.28814 0 9.68165L0 14.9315C0 17.5689 1.56979 18.7502 3.125 18.7502H9.0625C11.4571 18.7296 13.7615 17.8339 15.5414 16.232C17.3214 14.6302 18.4541 12.4326 18.726 10.0535ZM14.5312 4.22033C15.2708 4.96146 15.8425 5.85279 16.2076 6.834C16.5728 7.81521 16.723 8.86341 16.6479 9.90768C16.4256 11.7656 15.5318 13.4782 14.1347 14.7231C12.7377 15.968 10.9337 16.6593 9.0625 16.6669H3.125C2.15833 16.6669 2.08333 15.3388 2.08333 14.9315V9.68165C2.09202 7.81125 2.78401 6.00852 4.02908 4.61269C5.27415 3.21687 6.98645 2.3242 8.84375 2.10268C9.01667 2.09018 9.18958 2.08393 9.3625 2.08393C10.3222 2.08303 11.2726 2.27125 12.1595 2.63783C13.0463 3.0044 13.8523 3.54215 14.5312 4.22033Z" fill="#FF4040"/>
</svg>
