<svg width="24" height="24" viewBox="0 0 24 24" fill="none" xmlns="http://www.w3.org/2000/svg">
<path d="M5.25 5.24619L6.1875 20.2462C6.23203 21.1129 6.8625 21.7462 7.6875 21.7462H16.3125C17.1408 21.7462 17.7595 21.1129 17.8125 20.2462L18.75 5.24619" stroke="#FF4040" stroke-width="1.5" stroke-linecap="round" stroke-linejoin="round"/>
<path d="M3.75 5.24619H20.25H3.75Z" fill="#FF4040"/>
<path d="M3.75 5.24619H20.25" stroke="#FF4040" stroke-width="1.5" stroke-miterlimit="10" stroke-linecap="round"/>
<path d="M15.375 8.24891L15 18.7489M9 5.24891V3.37391C8.99957 3.22605 9.02837 3.07956 9.08475 2.94288C9.14114 2.80619 9.22399 2.682 9.32854 2.57745C9.43309 2.47289 9.55728 2.39004 9.69397 2.33366C9.83066 2.27728 9.97714 2.24847 10.125 2.24891H13.875C14.0229 2.24847 14.1693 2.27728 14.306 2.33366C14.4427 2.39004 14.5669 2.47289 14.6715 2.57745C14.776 2.682 14.8589 2.80619 14.9152 2.94288C14.9716 3.07956 15.0004 3.22605 15 3.37391V5.24891H9ZM12 8.24891V18.7489V8.24891ZM8.625 8.24891L9 18.7489L8.625 8.24891Z" stroke="#FF4040" stroke-width="1.5" stroke-linecap="round" stroke-linejoin="round"/>
</svg>
