<svg width="20" height="5" viewBox="0 0 20 5" fill="none" xmlns="http://www.w3.org/2000/svg">
<path d="M10 4.61539C11.2745 4.61539 12.3077 3.5822 12.3077 2.30769C12.3077 1.03319 11.2745 0 10 0C8.7255 0 7.69231 1.03319 7.69231 2.30769C7.69231 3.5822 8.7255 4.61539 10 4.61539Z" fill="#FF6464"/>
<path d="M17.6923 4.61539C18.9668 4.61539 20 3.5822 20 2.30769C20 1.03319 18.9668 0 17.6923 0C16.4178 0 15.3846 1.03319 15.3846 2.30769C15.3846 3.5822 16.4178 4.61539 17.6923 4.61539Z" fill="#FF6464"/>
<path d="M2.30769 4.61539C3.5822 4.61539 4.61539 3.5822 4.61539 2.30769C4.61539 1.03319 3.5822 0 2.30769 0C1.03319 0 0 1.03319 0 2.30769C0 3.5822 1.03319 4.61539 2.30769 4.61539Z" fill="#FF6464"/>
</svg>
