<svg width="40" height="35" viewBox="0 0 40 35" fill="none" xmlns="http://www.w3.org/2000/svg">
<path d="M0 32.0831C0 33.6941 1.30594 35 2.91689 35H17.5831C19.1941 35 20.5 33.6941 20.5 32.0831C20.5 30.4722 19.1941 29.1662 17.5831 29.1662H2.91689C1.30594 29.1662 0 30.4722 0 32.0831ZM0 17.5C0 19.1106 1.30563 20.4162 2.91621 20.4162H28.0838C29.6944 20.4162 31 19.1106 31 17.5C31 15.8894 29.6944 14.5838 28.0838 14.5838H2.91621C1.30563 14.5838 0 15.8894 0 17.5ZM2.91689 0C1.30594 0 0 1.30594 0 2.91689C0 4.52785 1.30594 5.83379 2.91689 5.83379H37.0831C38.6941 5.83379 40 4.52785 40 2.91689C40 1.30594 38.6941 0 37.0831 0H2.91689Z" fill="#FF4040"/>
</svg>
