<svg width="35" height="35" viewBox="0 0 35 35" fill="none" xmlns="http://www.w3.org/2000/svg">
<circle cx="17.5" cy="17.5" r="17.5" fill="#FF6464"/>
<path d="M22.347 11.9949L20.9822 9.83849C20.6946 9.50319 20.3003 9.29401 19.8584 9.29401H15.1416C14.6997 9.29401 14.3054 9.50319 14.0178 9.83849L12.653 11.9949C12.3654 12.3307 11.9947 12.5753 11.5527 12.5753H8.47656C8.04144 12.5753 7.62414 12.7481 7.31647 13.0558C7.00879 13.3635 6.83594 13.7808 6.83594 14.2159V24.0596C6.83594 24.4948 7.00879 24.9121 7.31647 25.2197C7.62414 25.5274 8.04144 25.7003 8.47656 25.7003H26.5234C26.9586 25.7003 27.3759 25.5274 27.6835 25.2197C27.9912 24.9121 28.1641 24.4948 28.1641 24.0596V14.2159C28.1641 13.7808 27.9912 13.3635 27.6835 13.0558C27.3759 12.7481 26.9586 12.5753 26.5234 12.5753H23.4985C23.0551 12.5753 22.6346 12.3307 22.347 11.9949Z" stroke="white" stroke-width="2" stroke-linecap="round" stroke-linejoin="round"/>
<path d="M17.5 22.422C19.7652 22.422 21.6016 20.5857 21.6016 18.3204C21.6016 16.0552 19.7652 14.2189 17.5 14.2189C15.2348 14.2189 13.3984 16.0552 13.3984 18.3204C13.3984 20.5857 15.2348 22.422 17.5 22.422Z" stroke="white" stroke-width="2" stroke-miterlimit="10"/>
<path d="M10.7324 12.4727V11.3448H9.50195V12.4727" stroke="white" stroke-width="2" stroke-linecap="round" stroke-linejoin="round"/>
</svg>
