<svg width="25" height="25" viewBox="0 0 25 25" fill="none" xmlns="http://www.w3.org/2000/svg">
<g clip-path="url(#clip0_222_1541)">
<path d="M17.7085 14.5833C17.7085 14.8596 17.5987 15.1245 17.4034 15.3199C17.208 15.5152 16.9431 15.625 16.6668 15.625H8.3335C8.05723 15.625 7.79228 15.5152 7.59693 15.3199C7.40158 15.1245 7.29183 14.8596 7.29183 14.5833C7.29183 14.3071 7.40158 14.0421 7.59693 13.8468C7.79228 13.6514 8.05723 13.5417 8.3335 13.5417H16.6668C16.9431 13.5417 17.208 13.6514 17.4034 13.8468C17.5987 14.0421 17.7085 14.3071 17.7085 14.5833ZM13.5418 17.7083H8.3335C8.05723 17.7083 7.79228 17.8181 7.59693 18.0134C7.40158 18.2088 7.29183 18.4737 7.29183 18.75C7.29183 19.0263 7.40158 19.2912 7.59693 19.4866C7.79228 19.6819 8.05723 19.7917 8.3335 19.7917H13.5418C13.8181 19.7917 14.083 19.6819 14.2784 19.4866C14.4737 19.2912 14.5835 19.0263 14.5835 18.75C14.5835 18.4737 14.4737 18.2088 14.2784 18.0134C14.083 17.8181 13.8181 17.7083 13.5418 17.7083ZM22.9168 10.9219V19.7917C22.9152 21.1725 22.3659 22.4963 21.3895 23.4727C20.4131 24.4491 19.0893 24.9983 17.7085 25H7.29183C5.911 24.9983 4.5872 24.4491 3.61081 23.4727C2.63441 22.4963 2.08515 21.1725 2.0835 19.7917V5.20833C2.08515 3.8275 2.63441 2.5037 3.61081 1.52731C4.5872 0.550912 5.911 0.00164751 7.29183 -6.50854e-06H11.995C12.9529 -0.00247206 13.9018 0.184981 14.7869 0.551513C15.6719 0.918046 16.4755 1.45639 17.1512 2.13541L20.7804 5.76666C21.4598 6.44191 21.9985 7.24526 22.3652 8.13017C22.7319 9.01509 22.9194 9.96397 22.9168 10.9219ZM15.6783 3.60833C15.3505 3.29079 14.9824 3.01762 14.5835 2.79583V7.29166C14.5835 7.56793 14.6932 7.83288 14.8886 8.02823C15.0839 8.22358 15.3489 8.33333 15.6252 8.33333H20.121C19.8991 7.93457 19.6255 7.56681 19.3075 7.23958L15.6783 3.60833ZM20.8335 10.9219C20.8335 10.75 20.8002 10.5854 20.7845 10.4167H15.6252C14.7964 10.4167 14.0015 10.0874 13.4155 9.50137C12.8294 8.91532 12.5002 8.12046 12.5002 7.29166V2.13229C12.3314 2.11666 12.1658 2.08333 11.995 2.08333H7.29183C6.46303 2.08333 5.66817 2.41257 5.08212 2.99862C4.49607 3.58467 4.16683 4.37953 4.16683 5.20833V19.7917C4.16683 20.6205 4.49607 21.4153 5.08212 22.0014C5.66817 22.5874 6.46303 22.9167 7.29183 22.9167H17.7085C18.5373 22.9167 19.3322 22.5874 19.9182 22.0014C20.5043 21.4153 20.8335 20.6205 20.8335 19.7917V10.9219Z" fill="#FF4040"/>
</g>
<defs>
<clipPath id="clip0_222_1541">
<rect width="25" height="25" fill="white"/>
</clipPath>
</defs>
</svg>
